<svg width="25" height="24" viewBox="0 0 25 24" fill="none" xmlns="http://www.w3.org/2000/svg">
<path d="M13.0466 14H11.0466C10.4943 14 10.0466 14.7163 10.0466 15.6V20.4C10.0466 21.2837 10.4943 22 11.0466 22H13.0466C13.5989 22 14.0466 21.2837 14.0466 20.4V15.6C14.0466 14.7163 13.5989 14 13.0466 14Z" fill="#A26FFD"/>
<path d="M5.04663 10H3.04663C2.49435 10 2.04663 10.597 2.04663 11.3333V20.6667C2.04663 21.403 2.49435 22 3.04663 22H5.04663C5.59892 22 6.04663 21.403 6.04663 20.6667V11.3333C6.04663 10.597 5.59892 10 5.04663 10Z" fill="#A26FFD"/>
<path d="M20.0466 1.5H18.0466C17.4943 1.5 17.0466 2.17157 17.0466 3V21C17.0466 21.8284 17.4943 22.5 18.0466 22.5H20.0466C20.5989 22.5 21.0466 21.8284 21.0466 21V3C21.0466 2.17157 20.5989 1.5 20.0466 1.5Z" fill="#A26FFD"/>
</svg>
