<svg width="25" height="36" viewBox="0 0 25 36" fill="none" xmlns="http://www.w3.org/2000/svg">
<path d="M21.5466 19V12.8768C21.5466 11.4536 21.5466 10.742 21.3645 10.0857C21.2031 9.5044 20.9379 8.95707 20.5816 8.4702C20.1794 7.92061 19.6209 7.47966 18.5038 6.59778L18.5038 6.59776L17.0038 5.41354C15.2328 4.01542 14.3473 3.31635 13.3673 3.04796C12.5028 2.81118 11.5905 2.81118 10.7259 3.04796C9.74592 3.31635 8.86044 4.01542 7.08948 5.41354L5.58948 6.59775C4.4724 7.47965 3.91387 7.9206 3.51167 8.4702C3.15538 8.95707 2.89014 9.5044 2.72878 10.0857C2.54663 10.742 2.54663 11.4536 2.54663 12.8768V19C2.54663 19.9319 2.54663 20.3978 2.69887 20.7654C2.90186 21.2554 3.29121 21.6448 3.78126 21.8478C4.14881 22 4.61475 22 5.54663 22H6.42163C6.5377 22 6.59573 22 6.64477 21.9976C7.67217 21.9471 8.49375 21.1255 8.54422 20.0981C8.54663 20.0491 8.54663 19.9911 8.54663 19.875V17C8.54663 15.067 10.1136 13.5 12.0466 13.5C13.9796 13.5 15.5466 15.067 15.5466 17V19.875C15.5466 19.9911 15.5466 20.0491 15.549 20.0981C15.5995 21.1255 16.4211 21.9471 17.4485 21.9976C17.4975 22 17.5556 22 17.6716 22H18.5466C19.4785 22 19.9445 22 20.312 21.8478C20.8021 21.6448 21.1914 21.2554 21.3944 20.7654C21.5466 20.3978 21.5466 19.9319 21.5466 19Z" fill="#A26FFD"/>
<circle cx="12.0466" cy="33" r="3" fill="#A26FFD"/>
</svg>
