<svg width="25" height="24" viewBox="0 0 25 24" fill="none" xmlns="http://www.w3.org/2000/svg">
<path d="M16.2376 2C19.3266 2 21.0466 3.78 21.0466 6.83V17.16C21.0466 20.26 19.3266 22 16.2376 22H7.85663C4.81663 22 3.04663 20.26 3.04663 17.16V6.83C3.04663 3.78 4.81663 2 7.85663 2H16.2376ZM8.12663 15.74C7.82663 15.71 7.53663 15.85 7.37663 16.11C7.21663 16.36 7.21663 16.69 7.37663 16.95C7.53663 17.2 7.82663 17.35 8.12663 17.31H15.9666C16.3656 17.27 16.6666 16.929 16.6666 16.53C16.6666 16.12 16.3656 15.78 15.9666 15.74H8.12663ZM15.9666 11.179H8.12663C7.69563 11.179 7.34663 11.53 7.34663 11.96C7.34663 12.39 7.69563 12.74 8.12663 12.74H15.9666C16.3966 12.74 16.7466 12.39 16.7466 11.96C16.7466 11.53 16.3966 11.179 15.9666 11.179ZM11.1156 6.65H8.12663V6.66C7.69563 6.66 7.34663 7.01 7.34663 7.44C7.34663 7.87 7.69563 8.22 8.12663 8.22H11.1156C11.5466 8.22 11.8966 7.87 11.8966 7.429C11.8966 7 11.5466 6.65 11.1156 6.65Z" fill="#4F4F4F"/>
</svg>
