<svg width="25" height="24" viewBox="0 0 25 24" fill="none" xmlns="http://www.w3.org/2000/svg">
<g clip-path="url(#clip0_25_653)">
<path d="M5.6748 20.9435L3.00376 18.2724C2.44996 19.9259 4.02203 21.4971 5.6748 20.9435Z" fill="#4F4F4F"/>
<path d="M10.0571 20.6848L3.3619 13.9896C2.99573 13.6234 2.40205 13.6234 2.03588 13.9896C1.6697 14.3557 1.6697 14.9494 2.03588 15.3156L8.73109 22.0108C9.09727 22.377 9.69095 22.377 10.0571 22.0108C10.4233 21.6446 10.4233 21.051 10.0571 20.6848Z" fill="#4F4F4F"/>
<path d="M13.1906 7.77349L7.82023 13.1439L4.86474 10.1884C4.47422 9.79786 3.84105 9.79786 3.45053 10.1884L3.20723 10.4317C2.8167 10.8222 2.8167 11.4554 3.20723 11.8459L12.2007 20.8394C12.5913 21.2299 13.2244 21.2299 13.615 20.8394L13.8583 20.5961C14.2488 20.2056 14.2488 19.5724 13.8583 19.1819L10.8033 16.127L16.1737 10.7566L19.2286 13.8115C19.6192 14.202 20.2523 14.202 20.6429 13.8115L20.8862 13.5682C21.2767 13.1777 21.2767 12.5445 20.8862 12.154L11.8926 3.16049C11.5021 2.76996 10.869 2.76996 10.4784 3.16049L10.2351 3.40379C9.8446 3.79431 9.8446 4.42748 10.2351 4.818L13.1906 7.77349Z" fill="#4F4F4F"/>
<path d="M18.3192 2.95691L20.9902 5.62795C21.544 3.97452 19.9719 2.40332 18.3192 2.95691Z" fill="#4F4F4F"/>
<path d="M22.0574 8.68431L15.3622 1.98909C14.996 1.62292 14.4024 1.62292 14.0362 1.98909C13.67 2.35526 13.67 2.94894 14.0362 3.31511L20.7314 10.0103C21.0976 10.3765 21.6913 10.3765 22.0574 10.0103C22.4236 9.64416 22.4236 9.05048 22.0574 8.68431Z" fill="#4F4F4F"/>
</g>
<defs>
<clipPath id="clip0_25_653">
<rect width="24" height="24" fill="white" transform="translate(0.0466309)"/>
</clipPath>
</defs>
</svg>
