<?xml version="1.0" encoding="utf-8"?>
<svg width="18.999954px" height="33.12964px" viewBox="0 0 18.999954 33.12964" version="1.1" xmlns:xlink="http://www.w3.org/1999/xlink" xmlns="http://www.w3.org/2000/svg">
  <g id="ana_sayfa_secili">
    <path d="M19 16.1296L19 10.0064C19 8.58324 19 7.87164 18.8179 7.21534C18.6565 6.63404 18.3913 6.08671 18.035 5.59984C17.6328 5.05025 17.0743 4.6093 15.9572 3.72742L15.9572 3.7274L14.4572 2.54318C12.6862 1.14506 11.8007 0.445989 10.8207 0.177599C9.95617 -0.0591812 9.04387 -0.0591812 8.17927 0.177599C7.19929 0.445989 6.31381 1.14506 4.54285 2.54318L3.04285 3.72739C1.92577 4.60929 1.36724 5.05024 0.965039 5.59984C0.608749 6.08671 0.343509 6.63404 0.182149 7.21534C-9.53674e-07 7.87164 -9.53674e-07 8.58324 -9.53674e-07 10.0064L-9.53674e-07 16.1296C-9.53674e-07 17.0615 -9.53674e-07 17.5274 0.152239 17.895C0.355229 18.385 0.744579 18.7744 1.23463 18.9774C1.60218 19.1296 2.06812 19.1296 3 19.1296L3.875 19.1296C3.99107 19.1296 4.0491 19.1296 4.09814 19.1272C5.12554 19.0767 5.94712 18.2551 5.99759 17.2277C6 17.1787 6 17.1207 6 17.0046L6 14.1296C6 12.1966 7.56697 10.6296 9.49997 10.6296C11.433 10.6296 13 12.1966 13 14.1296L13 17.0046C13 17.1207 13 17.1787 13.0024 17.2277C13.0529 18.2551 13.8745 19.0767 14.9019 19.1272C14.9509 19.1296 15.009 19.1296 15.125 19.1296L16 19.1296C16.9319 19.1296 17.3979 19.1296 17.7654 18.9774C18.2555 18.7744 18.6448 18.385 18.8478 17.895C19 17.5274 19 17.0615 19 16.1296L19 16.1296Z" id="Şekil" fill="#A26FFD" stroke="none" />
    <path d="M6.49997 30.1296C6.49997 28.4728 7.84311 27.1296 9.49997 27.1296C11.1568 27.1296 12.5 28.4728 12.5 30.1296C12.5 31.7865 11.1568 33.1296 9.49997 33.1296C7.84311 33.1296 6.49997 31.7865 6.49997 30.1296Z" id="Daire" fill="#A26FFD" fill-rule="evenodd" stroke="none" />
  </g>
</svg>