<?xml version="1.0" encoding="utf-8"?>
<svg width="18.99997px" height="19.129639px" viewBox="0 0 18.99997 19.129639" version="1.1" xmlns:xlink="http://www.w3.org/1999/xlink" xmlns="http://www.w3.org/2000/svg">
  <path d="M19 16.1296L19 10.0064C19 8.58322 19 7.87161 18.8179 7.21533C18.6565 6.63403 18.3913 6.0867 18.035 5.59982C17.6328 5.05023 17.0743 4.60928 15.9572 3.72742L15.9572 3.72739L14.4572 2.54315C12.6862 1.14505 11.8007 0.445984 10.8207 0.177582C9.95618 -0.0592041 9.04388 -0.0592041 8.17926 0.177582C7.1993 0.445984 6.31381 1.14505 4.54285 2.54315L3.04285 3.72739C1.92577 4.60928 1.36723 5.05023 0.965042 5.59982C0.608749 6.0867 0.343506 6.63403 0.182144 7.21533C0 7.87161 0 8.58322 0 10.0064L0 16.1296C0 17.0615 0 17.5274 0.152237 17.895C0.355225 18.385 0.744583 18.7744 1.23463 18.9774C1.60217 19.1296 2.06812 19.1296 3 19.1296L3.875 19.1296C3.99107 19.1296 4.0491 19.1296 4.09814 19.1272C5.12553 19.0767 5.94711 18.2551 5.99759 17.2277C6 17.1787 6 17.1207 6 17.0046L6 14.1296C6 12.1966 7.56697 10.6296 9.49997 10.6296C11.433 10.6296 13 12.1966 13 14.1296L13 17.0046C13 17.1207 13 17.1787 13.0024 17.2277C13.0529 18.2551 13.8745 19.0767 14.9019 19.1272C14.9509 19.1296 15.009 19.1296 15.125 19.1296L16 19.1296C16.9319 19.1296 17.3979 19.1296 17.7654 18.9774C18.2555 18.7744 18.6448 18.385 18.8478 17.895C19 17.5274 19 17.0615 19 16.1296L19 16.1296Z" id="ana_sayfa" fill="#4F4F4F" stroke="none" />
</svg>