<?xml version="1.0" encoding="utf-8"?>
<svg width="20.5708px" height="34.570984px" viewBox="0 0 20.5708 34.570984" version="1.1" xmlns:xlink="http://www.w3.org/1999/xlink" xmlns="http://www.w3.org/2000/svg">
  <g id="antrenman_secili">
    <path d="M3.91355 19.229L1.24252 16.5579C0.688715 18.2114 2.26078 19.7826 3.91355 19.229L3.91355 19.229ZM8.29586 18.9703L1.60066 12.2751C1.23448 11.9089 0.640805 11.9089 0.274635 12.2751C-0.091545 12.6412 -0.091545 13.2349 0.274635 13.6011L6.96984 20.2963C7.33603 20.6625 7.92971 20.6625 8.29586 20.2963C8.66206 19.9301 8.66206 19.3365 8.29586 18.9703L8.29586 18.9703ZM11.4294 6.05903L6.05898 11.4294L3.10349 8.47394C2.71297 8.0834 2.0798 8.0834 1.68929 8.47394L1.44599 8.71724C1.05545 9.10774 1.05545 9.74094 1.44599 10.1314L10.4395 19.1249C10.8301 19.5154 11.4632 19.5154 11.8538 19.1249L12.0971 18.8816C12.4876 18.4911 12.4876 17.8579 12.0971 17.4674L9.04206 14.4125L14.4125 9.04214L17.4674 12.097C17.858 12.4875 18.4911 12.4875 18.8817 12.097L19.125 11.8537C19.5155 11.4632 19.5155 10.83 19.125 10.4395L10.1314 1.44603C9.74086 1.0555 9.10776 1.0555 8.71716 1.44603L8.47386 1.68933C8.08335 2.07985 8.08335 2.71302 8.47386 3.10354L11.4294 6.05903L11.4294 6.05903ZM16.558 1.24245L19.229 3.91349C19.7828 2.26006 18.2107 0.688858 16.558 1.24245L16.558 1.24245ZM20.2962 6.96985L13.601 0.274627C13.2348 -0.0915425 12.6412 -0.0915425 12.275 0.274627C11.9088 0.640797 11.9088 1.23448 12.275 1.60065L18.9702 8.29584C19.3364 8.66204 19.9301 8.66204 20.2962 8.29584C20.6624 7.9297 20.6624 7.33602 20.2962 6.96985L20.2962 6.96985Z" id="Group" fill="#A26FFD" fill-rule="evenodd" stroke="none" />
    <path d="M7.23875 31.571C7.23875 29.9141 8.5819 28.571 10.2388 28.571C11.8956 28.571 13.2388 29.9141 13.2388 31.571C13.2388 33.2278 11.8956 34.571 10.2388 34.571C8.5819 34.571 7.23875 33.2278 7.23875 31.571Z" id="Daire" fill="#A26FFD" fill-rule="evenodd" stroke="none" />
  </g>
</svg>