<?xml version="1.0" encoding="utf-8"?>
<svg width="20.57074px" height="20.570923px" viewBox="0 0 20.57074 20.570923" version="1.1" xmlns:xlink="http://www.w3.org/1999/xlink" xmlns="http://www.w3.org/2000/svg">
  <g id="antrenman">
    <path d="M3.91355 19.2289L1.24251 16.5579C0.688713 18.2113 2.26078 19.7825 3.91355 19.2289L3.91355 19.2289Z" id="Şekil" fill="#4F4F4F" stroke="none" />
    <path d="M8.29589 18.9703L1.60065 12.275C1.23448 11.9089 0.640803 11.9089 0.274633 12.275C-0.0915368 12.6412 -0.0915368 13.2349 0.274633 13.6011L6.96985 20.2963C7.33602 20.6625 7.9297 20.6625 8.29589 20.2963C8.66209 19.9301 8.66209 19.3364 8.29589 18.9703L8.29589 18.9703Z" id="Şekil" fill="#4F4F4F" stroke="none" />
    <path d="M11.4293 6.05895L6.05892 11.4294L3.10343 8.47386C2.71291 8.08332 2.07974 8.08332 1.68922 8.47386L1.44592 8.71716C1.05539 9.10766 1.05539 9.74086 1.44592 10.1314L10.4394 19.1249C10.83 19.5154 11.4631 19.5154 11.8537 19.1249L12.097 18.8816C12.4875 18.4911 12.4875 17.8579 12.097 17.4674L9.04199 14.4125L14.4124 9.04206L17.4673 12.097C17.8579 12.4875 18.491 12.4875 18.8816 12.097L19.1249 11.8537C19.5154 11.4632 19.5154 10.83 19.1249 10.4395L10.1313 1.44595C9.74079 1.05542 9.10769 1.05542 8.71709 1.44595L8.47379 1.68925C8.08329 2.07977 8.08329 2.71294 8.47379 3.10346L11.4293 6.05895L11.4293 6.05895Z" id="Şekil" fill="#4F4F4F" stroke="none" />
    <path d="M16.5578 1.24243L19.2288 3.91347C19.7826 2.26004 18.2106 0.688841 16.5578 1.24243L16.5578 1.24243Z" id="Şekil" fill="#4F4F4F" stroke="none" />
    <path d="M20.2961 6.96983L13.6009 0.274612C13.2347 -0.0915577 12.6411 -0.0915577 12.2749 0.274612C11.9087 0.640782 11.9087 1.23446 12.2749 1.60063L18.9701 8.29586C19.3363 8.66206 19.93 8.66206 20.2961 8.29586C20.6623 7.92968 20.6623 7.336 20.2961 6.96983L20.2961 6.96983Z" id="Şekil" fill="#4F4F4F" stroke="none" />
  </g>
</svg>