<?xml version="1.0" encoding="utf-8"?>
<svg width="17.99997px" height="20px" viewBox="0 0 17.99997 20" version="1.1" xmlns:xlink="http://www.w3.org/1999/xlink" xmlns="http://www.w3.org/2000/svg">
  <path d="M13.191 0C16.28 0 18 1.78 18 4.82999L18 15.16C18 18.26 16.28 20 13.191 20L4.81 20C1.77 20 0 18.26 0 15.16L0 4.82999C0 1.78 1.77 0 4.81 0L13.191 0L13.191 0ZM5.08 13.74C4.78 13.71 4.49001 13.85 4.33 14.11C4.17 14.36 4.17 14.69 4.33 14.95C4.49001 15.2 4.78 15.35 5.08 15.31L12.92 15.31C13.319 15.27 13.62 14.929 13.62 14.53C13.62 14.12 13.319 13.78 12.92 13.74L5.08 13.74L5.08 13.74ZM12.92 9.17899L5.08 9.17899C4.649 9.17899 4.3 9.53 4.3 9.95999C4.3 10.39 4.649 10.74 5.08 10.74L12.92 10.74C13.35 10.74 13.7 10.39 13.7 9.95999C13.7 9.53 13.35 9.17899 12.92 9.17899L12.92 9.17899ZM8.069 4.64999L5.08 4.64999L5.08 4.66C4.649 4.66 4.3 5.01001 4.3 5.44C4.3 5.87 4.649 6.22 5.08 6.22L8.069 6.22C8.5 6.22 8.85001 5.87 8.85001 5.42899C8.85001 5 8.5 4.64999 8.069 4.64999L8.069 4.64999Z" id="diyetisyen" fill="#4F4F4F" fill-rule="evenodd" stroke="none" />
</svg>