<?xml version="1.0" encoding="utf-8"?>
<svg width="17.99997px" height="34px" viewBox="0 0 17.99997 34" version="1.1" xmlns:xlink="http://www.w3.org/1999/xlink" xmlns="http://www.w3.org/2000/svg">
  <g id="diyetisyen_secili">
    <path d="M13.191 0C16.28 0 18 1.78 18 4.83L18 15.16C18 18.26 16.28 20 13.191 20L4.81 20C1.77 20 0 18.26 0 15.16L0 4.83C0 1.78 1.77 0 4.81 0L13.191 0L13.191 0ZM5.08 13.74C4.78 13.71 4.49 13.85 4.33 14.11C4.17 14.36 4.17 14.69 4.33 14.95C4.49 15.2 4.78 15.35 5.08 15.31L12.92 15.31C13.319 15.27 13.62 14.929 13.62 14.53C13.62 14.12 13.319 13.78 12.92 13.74L5.08 13.74L5.08 13.74ZM12.92 9.179L5.08 9.179C4.649 9.179 4.3 9.53 4.3 9.96C4.3 10.39 4.649 10.74 5.08 10.74L12.92 10.74C13.35 10.74 13.7 10.39 13.7 9.96C13.7 9.53 13.35 9.179 12.92 9.179L12.92 9.179ZM8.06897 4.65L5.08 4.65L5.08 4.66C4.649 4.66 4.3 5.01 4.3 5.44C4.3 5.87 4.649 6.22 5.08 6.22L8.06897 6.22C8.49997 6.22 8.84997 5.87 8.84997 5.429C8.84997 5 8.49997 4.65 8.06897 4.65L8.06897 4.65Z" id="Şekil" fill="#A26FFD" fill-rule="evenodd" stroke="none" />
    <path d="M5.95341 31C5.95341 29.3431 7.29656 28 8.95341 28C10.6103 28 11.9534 29.3431 11.9534 31C11.9534 32.6569 10.6103 34 8.95341 34C7.29656 34 5.95341 32.6569 5.95341 31Z" id="Daire-2" fill="#A26FFD" fill-rule="evenodd" stroke="none" />
  </g>
</svg>