<?xml version="1.0" encoding="utf-8"?>
<svg width="18.99997px" height="35px" viewBox="0 0 18.99997 35" version="1.1" xmlns:xlink="http://www.w3.org/1999/xlink" xmlns="http://www.w3.org/2000/svg">
  <g id="istatistik_secili">
    <path d="M7.16791 32C7.16791 30.3431 8.51105 29 10.1679 29C11.8248 29 13.1679 30.3431 13.1679 32C13.1679 33.6569 11.8248 35 10.1679 35C8.51105 35 7.16791 33.6569 7.16791 32Z" id="Daire-2" fill="#A26FFD" fill-rule="evenodd" stroke="none" />
    <g id="Group">
      <path d="M11 12.5L9 12.5C8.44772 12.5 8 13.2163 8 14.1L8 18.9C8 19.7837 8.44772 20.5 9 20.5L11 20.5C11.5523 20.5 12 19.7837 12 18.9L12 14.1C12 13.2163 11.5523 12.5 11 12.5L11 12.5Z" id="Şekil" fill="#A26FFD" stroke="none" />
      <path d="M3 8.5L0.999999 8.5C0.447715 8.5 4.09782e-08 9.09695 4.09782e-08 9.8333L4.09782e-08 19.1667C4.09782e-08 19.903 0.447715 20.5 0.999999 20.5L3 20.5C3.55229 20.5 4 19.903 4 19.1667L4 9.8333C4 9.09695 3.55229 8.5 3 8.5L3 8.5Z" id="Şekil" fill="#A26FFD" stroke="none" />
      <path d="M18 0L16 0C15.4477 0 15 0.67157 15 1.5L15 19.5C15 20.3284 15.4477 21 16 21L18 21C18.5523 21 19 20.3284 19 19.5L19 1.5C19 0.67157 18.5523 0 18 0L18 0Z" id="Şekil" fill="#A26FFD" stroke="none" />
    </g>
  </g>
</svg>