<?xml version="1.0" encoding="utf-8"?>
<svg width="16.974258px" height="35px" viewBox="0 0 16.974258 35" version="1.1" xmlns:xlink="http://www.w3.org/1999/xlink" xmlns="http://www.w3.org/2000/svg">
  <g id="profil_secili">
    <g id="Profile">
      <path d="M3.48709 5C3.48709 2.23858 5.72567 0 8.48709 0C11.2485 0 13.4871 2.23858 13.4871 5C13.4871 7.76142 11.2485 10 8.48709 10C5.72567 10 3.48709 7.76142 3.48709 5Z" id="Daire" fill="#A26FFD" fill-rule="evenodd" stroke="none" />
      <path d="M1.79801 19.6334C0.113651 18.9118 -0.569809 16.8776 0.544751 15.4231C2.3724 13.038 5.25016 11.5 8.48709 11.5C11.7241 11.5 14.6019 13.038 16.4295 15.4231C17.5441 16.8776 16.8606 18.9118 15.1763 19.6334C13.1233 20.513 10.8621 21 8.48719 21C6.11222 21 3.85104 20.513 1.79801 19.6334L1.79801 19.6334Z" id="Şekil" fill="#A26FFD" fill-rule="evenodd" stroke="none" />
    </g>
    <path d="M5.44052 32C5.44052 30.3431 6.78367 29 8.44052 29C10.0974 29 11.4405 30.3431 11.4405 32C11.4405 33.6569 10.0974 35 8.44052 35C6.78367 35 5.44052 33.6569 5.44052 32Z" id="Daire-3" fill="#A26FFD" fill-rule="evenodd" stroke="none" />
  </g>
</svg>