<?xml version="1.0" encoding="utf-8"?>
<svg width="16.974274px" height="21px" viewBox="0 0 16.974274 21" version="1.1" xmlns:xlink="http://www.w3.org/1999/xlink" xmlns="http://www.w3.org/2000/svg">
  <g id="profil">
    <path d="M3.48715 5C3.48715 2.23858 5.72573 0 8.48715 0C11.2486 0 13.4872 2.23858 13.4872 5C13.4872 7.76142 11.2486 10 8.48715 10C5.72573 10 3.48715 7.76142 3.48715 5Z" id="Daire" fill="#4F4F4F" fill-rule="evenodd" stroke="none" />
    <path d="M1.79801 19.6334C0.113652 18.9118 -0.569808 16.8776 0.544752 15.4231C2.3724 13.038 5.25016 11.5 8.48715 11.5C11.7242 11.5 14.6019 13.038 16.4296 15.4231C17.5441 16.8776 16.8607 18.9118 15.1763 19.6334C13.1233 20.513 10.8621 21 8.48715 21C6.11222 21 3.85104 20.513 1.79801 19.6334L1.79801 19.6334Z" id="Şekil" fill="#4F4F4F" fill-rule="evenodd" stroke="none" />
  </g>
</svg>